<svg width="24" height="25" viewBox="0 0 24 25" fill="none" xmlns="http://www.w3.org/2000/svg">
<path d="M3.02785 8.51547L6.5608 10.4782C8.54603 11.5811 9.53864 12.1326 10.5898 12.3488C11.5202 12.5401 12.4798 12.5401 13.4102 12.3488C14.4614 12.1326 15.454 11.5811 17.4392 10.4782L20.9721 8.51547M3.02785 8.51547C3 8.98412 3 9.56075 3 10.3V14.7C3 16.3802 3 17.2202 3.32698 17.862C3.6146 18.4265 4.07354 18.8854 4.63803 19.173C5.27976 19.5 6.11984 19.5 7.8 19.5H16.2C17.8802 19.5 18.7202 19.5 19.362 19.173C19.9265 18.8854 20.3854 18.4265 20.673 17.862C21 17.2202 21 16.3802 21 14.7V10.3C21 9.56075 21 8.98412 20.9721 8.51547M3.02785 8.51547C3.0633 7.91899 3.14387 7.49741 3.32698 7.13803C3.6146 6.57354 4.07354 6.1146 4.63803 5.82698C5.27976 5.5 6.11984 5.5 7.8 5.5H16.2C17.8802 5.5 18.7202 5.5 19.362 5.82698C19.9265 6.1146 20.3854 6.57354 20.673 7.13803C20.8561 7.49741 20.9367 7.91899 20.9721 8.51547" stroke="#011222" stroke-width="1.5" stroke-linecap="round" stroke-linejoin="round"/>
</svg>
